<svg width="81" height="80" viewBox="0 0 81 80" fill="none" xmlns="http://www.w3.org/2000/svg">
<path d="M80.4232 76.8543C79.3579 72.7708 76.4397 69.423 72.5399 67.8104C76.478 65.507 78.51 60.9501 77.5918 56.4814C76.6735 52.0126 73.0093 48.626 68.4821 48.0622V35.9771C68.4779 32.2993 65.4974 29.319 61.8197 29.3147H52.4923V23.9847C52.4921 23.6313 52.3518 23.2925 52.1019 23.0427L47.1623 18.103V9.32724C47.1623 4.43111 41.5057 0.409705 41.2642 0.241108C40.8053 -0.0803693 40.1942 -0.0803693 39.7353 0.241108C39.4938 0.409546 33.8372 4.43111 33.8372 9.32724V18.103L28.8976 23.0427C28.6477 23.2925 28.5072 23.6313 28.5072 23.9847V29.3147H19.1798C15.5019 29.319 12.5216 32.2994 12.5173 35.9771V48.0622C7.99014 48.626 4.32578 52.0126 3.40755 56.4814C2.48931 60.9501 4.52136 65.5072 8.45958 67.8105C4.55962 69.4233 1.64156 72.7713 0.576324 76.8551C0.42265 77.6173 0.620776 78.4083 1.11577 79.0079C1.62728 79.6368 2.39501 80.0013 3.20561 80H77.794C78.6046 80.0011 79.3724 79.6366 79.8839 79.0078C80.3789 78.4079 80.577 77.6168 80.4232 76.8543ZM67.1497 50.6346C71.5632 50.6394 75.1398 54.2161 75.1447 58.6296C75.1447 63.0451 71.5653 66.6246 67.1497 66.6246C62.7341 66.6246 59.1547 63.0452 59.1547 58.6296C59.1547 54.214 62.7341 50.6346 67.1497 50.6346ZM47.1623 21.8714L49.8273 24.5364V32.7187L47.1623 30.005V21.8714ZM40.5017 3.0155C42.1659 4.31982 43.4607 6.03627 44.2575 7.99482H36.7439C37.5449 6.03802 38.8397 4.32252 40.5017 3.0155ZM36.5022 10.6598H44.4972V18.6548V23.9849H36.5022V10.6598ZM36.5022 26.6497H44.4972V29.3147H36.5022V26.6497ZM36.5043 32.005H44.4953C44.4284 32.9426 42.5441 36.0981 40.4998 39.024C38.4549 36.0981 36.5707 32.9432 36.5043 32.005ZM49.8273 55.9646C49.8273 61.116 45.6512 65.2921 40.4998 65.2921C35.3484 65.2921 31.1724 61.116 31.1724 55.9646C31.1781 50.8156 35.3508 46.6429 40.4998 46.6372C45.6512 46.6372 49.8273 50.8132 49.8273 55.9646ZM31.1724 24.5364L33.8374 21.8714V30.005L31.1724 32.7187V24.5364ZM5.8549 58.6296C5.8549 54.2142 9.43433 50.6346 13.8499 50.6346C18.2655 50.6346 21.8449 54.214 21.8449 58.6296C21.8449 63.0452 18.2655 66.6246 13.8499 66.6246C9.43639 66.6197 5.85982 63.0431 5.8549 58.6296ZM3.18799 77.3866C4.06511 73.0801 9.00395 69.3031 13.7575 69.3031C18.6497 69.3031 23.4598 73.1093 24.3225 77.3385L3.18799 77.3866ZM19.1779 67.8483C23.1429 65.5648 25.205 61.0027 24.2993 56.5177C23.3936 52.0326 19.7229 48.6283 15.1823 48.0623V35.9773C15.1847 33.7706 16.9731 31.9823 19.1798 31.9799H28.5072V35.9773C28.5072 36.5185 28.8344 37.0059 29.3353 37.2107C29.8361 37.4155 30.4112 37.297 30.7903 36.9109L34.1797 33.4595C35.5307 36.3969 37.2034 39.1753 39.1672 41.7436V44.0508C33.9776 44.6278 29.7588 48.4986 28.7384 53.6195C27.7179 58.7404 30.1305 63.9328 34.7024 66.4551C31.012 67.9075 27.9052 70.5392 25.8657 73.9405C24.3577 71.2369 22.01 69.0984 19.1779 67.8483ZM27.2959 77.3352C28.3759 72.9896 34.3768 67.9661 40.4998 67.9661C46.6228 67.9661 52.6237 72.9896 53.7037 77.3352H27.2959ZM46.2972 66.4553C50.8692 63.9328 53.2818 58.7406 52.2613 53.6197C51.2408 48.4987 47.0221 44.628 41.8324 44.0509V41.7437C43.7962 39.1754 45.469 36.3969 46.82 33.4596L50.2094 36.9111C50.5885 37.2972 51.1635 37.4158 51.6644 37.211C52.1652 37.0062 52.4924 36.5187 52.4924 35.9775V31.98H61.8199C64.0266 31.9824 65.8149 33.7708 65.8173 35.9775V48.0625C61.2768 48.6284 57.6061 52.0329 56.7004 56.5179C55.7947 61.003 57.8567 65.565 61.8216 67.8485C58.9894 69.0985 56.6418 71.2372 55.1339 73.9408C53.0944 70.5394 49.9876 67.9077 46.2972 66.4553ZM77.794 77.3352H56.6777C57.5424 73.1074 62.3512 69.3031 67.242 69.3031C71.9955 69.3031 76.9344 73.0801 77.8205 77.3215C77.8137 77.3291 77.8042 77.334 77.794 77.3352Z" fill="#032086"/>
</svg>
