<svg width="91" height="81" viewBox="0 0 91 81" fill="none" xmlns="http://www.w3.org/2000/svg">
<path d="M89 76.7762H81.5V25.7124C81.5 25.2609 81.342 24.828 81.0607 24.5088C80.7794 24.1896 80.3978 24.0103 80 24.0103H71C70.6022 24.0103 70.2206 24.1896 69.9393 24.5088C69.658 24.828 69.5 25.2609 69.5 25.7124V76.7762H66.5V39.3294C66.5 38.878 66.342 38.445 66.0607 38.1258C65.7794 37.8066 65.3978 37.6273 65 37.6273H56C55.6022 37.6273 55.2206 37.8066 54.9393 38.1258C54.658 38.445 54.5 38.878 54.5 39.3294V76.7762H51.5V34.223C51.5 33.7716 51.342 33.3386 51.0607 33.0194C50.7794 32.7002 50.3978 32.5209 50 32.5209H41C40.6022 32.5209 40.2206 32.7002 39.9393 33.0194C39.658 33.3386 39.5 33.7716 39.5 34.223V76.7762H36.5V41.0315C36.5 40.5801 36.342 40.1472 36.0607 39.8279C35.7794 39.5087 35.3978 39.3294 35 39.3294H26C25.6022 39.3294 25.2206 39.5087 24.9393 39.8279C24.658 40.1472 24.5 40.5801 24.5 41.0315V76.7762H21.5V47.84C21.5 47.3886 21.342 46.9557 21.0607 46.6365C20.7794 46.3172 20.3978 46.1379 20 46.1379H11C10.6022 46.1379 10.2206 46.3172 9.93934 46.6365C9.65804 46.9557 9.5 47.3886 9.5 47.84V76.7762H2C1.60218 76.7762 1.22064 76.9555 0.93934 77.2747C0.658035 77.594 0.5 78.0269 0.5 78.4783C0.5 78.9298 0.658035 79.3627 0.93934 79.6819C1.22064 80.0011 1.60218 80.1805 2 80.1805H89C89.3978 80.1805 89.7794 80.0011 90.0607 79.6819C90.342 79.3627 90.5 78.9298 90.5 78.4783C90.5 78.0269 90.342 77.594 90.0607 77.2747C89.7794 76.9555 89.3978 76.7762 89 76.7762ZM12.5 76.7762V49.5422H18.5V76.7762H12.5ZM27.5 76.7762V42.7337H33.5V76.7762H27.5ZM42.5 76.7762V35.9251H48.5V76.7762H42.5ZM57.5 76.7762V41.0315H63.5V76.7762H57.5ZM72.5 76.7762V27.4145H78.5V76.7762H72.5Z" fill="#032086"/>
<path d="M4.99981 44.4357C5.20271 44.4357 5.40347 44.3888 5.58988 44.2979L12.1931 41.0866C12.8063 41.8428 13.6065 42.3713 14.4889 42.6029C15.3713 42.8346 16.2947 42.7585 17.1384 42.3846C17.982 42.0108 18.7065 41.3566 19.2171 40.5078C19.7276 39.6589 20.0005 38.6549 19.9998 37.6272C19.9998 37.5577 19.9976 37.4889 19.9951 37.42L27.1201 34.1859C27.7231 34.967 28.5217 35.5208 29.4093 35.7733C30.2969 36.0258 31.2313 35.965 32.0877 35.5991C32.944 35.2331 33.6816 34.5794 34.202 33.7252C34.7223 32.8711 35.0007 31.8571 34.9998 30.8187C34.9998 30.7491 34.9976 30.6804 34.9951 30.6115L42.1201 27.3774C42.564 27.9526 43.1162 28.4071 43.7358 28.7073C44.3554 29.0075 45.0266 29.1458 45.6997 29.1118C46.3727 29.0778 47.0304 28.8724 47.6241 28.5109C48.2178 28.1494 48.7322 27.641 49.1292 27.0234L56.0045 29.3638C56.0359 30.1128 56.2122 30.8448 56.521 31.5077C56.8298 32.1706 57.2635 32.7483 57.7912 33.1995C58.319 33.6508 58.9278 33.9646 59.5745 34.1188C60.2212 34.2729 60.8899 34.2635 61.533 34.0913C62.1761 33.919 62.7779 33.5882 63.2957 33.1223C63.8134 32.6563 64.2344 32.0667 64.5286 31.3953C64.8229 30.7239 64.9832 29.9873 64.9983 29.2376C65.0133 28.488 64.8827 27.7438 64.6156 27.0579L73.0344 18.0666C73.8793 18.6961 74.8865 18.9843 75.8934 18.8846C76.9003 18.7849 77.8483 18.3031 78.5843 17.517C79.3204 16.7309 79.8015 15.6864 79.9502 14.5519C80.0989 13.4174 79.9064 12.2591 79.4038 11.264L84.4998 5.82191V6.98893C84.4998 7.44036 84.6579 7.87331 84.9392 8.19252C85.2205 8.51173 85.602 8.69106 85.9998 8.69106C86.3976 8.69106 86.7792 8.51173 87.0605 8.19252C87.3418 7.87331 87.4998 7.44036 87.4998 6.98893V1.88255C87.4998 1.43112 87.3418 0.998173 87.0605 0.678962C86.7792 0.359751 86.3976 0.18042 85.9998 0.18042H81.4998C81.102 0.18042 80.7205 0.359751 80.4392 0.678962C80.1579 0.998173 79.9998 1.43112 79.9998 1.88255C79.9998 2.33398 80.1579 2.76692 80.4392 3.08613C80.7205 3.40535 81.102 3.58468 81.4998 3.58468H82.2176L77.1161 9.03297C76.3252 8.68705 75.4643 8.60169 74.6325 8.78672C73.8008 8.97175 73.032 9.41965 72.4148 10.0788C71.7975 10.738 71.3569 11.5816 71.1438 12.5125C70.9306 13.4434 70.9535 14.4237 71.2098 15.3404L62.5593 24.5791C61.6067 24.0204 60.5092 23.8669 59.4655 24.1466C58.4219 24.4262 57.5008 25.1205 56.8691 26.1038L49.9938 23.7634C49.9334 22.4351 49.4187 21.1859 48.559 20.2817C47.6994 19.3774 46.5628 18.8895 45.391 18.9216C44.2192 18.9538 43.1047 19.5035 42.2846 20.4538C41.4645 21.4042 41.0036 22.6801 40.9998 24.0102C40.9998 24.0798 41.0021 24.1487 41.0045 24.2174L33.8795 27.4515C33.2765 26.6704 32.4779 26.1166 31.5903 25.8641C30.7027 25.6116 29.7683 25.6724 28.912 26.0384C28.0556 26.4043 27.318 27.058 26.7976 27.9122C26.2773 28.7664 25.999 29.7803 25.9998 30.8187C25.9998 30.8883 26.0021 30.957 26.0045 31.0259L18.8795 34.26C18.2765 33.4789 17.4779 32.9251 16.5903 32.6726C15.7027 32.4202 14.7683 32.4809 13.912 32.8469C13.0556 33.2128 12.318 33.8665 11.7976 34.7207C11.2773 35.5749 10.999 36.5888 10.9998 37.6272C10.9998 37.7387 11.0041 37.8489 11.0103 37.9587L4.409 41.1689C4.09138 41.3233 3.83046 41.5973 3.67033 41.9448C3.51019 42.2922 3.46068 42.6917 3.53014 43.0758C3.5996 43.4599 3.78378 43.805 4.05156 44.0527C4.31934 44.3005 4.65429 44.4358 4.99981 44.4357ZM75.4998 12.0953C75.7965 12.0953 76.0865 12.1951 76.3332 12.3822C76.5798 12.5692 76.7721 12.835 76.8856 13.1461C76.9992 13.4571 77.0289 13.7993 76.971 14.1295C76.9131 14.4597 76.7703 14.763 76.5605 15.001C76.3507 15.2391 76.0834 15.4012 75.7924 15.4669C75.5015 15.5325 75.1999 15.4988 74.9258 15.37C74.6517 15.2412 74.4174 15.023 74.2526 14.7431C74.0878 14.4632 73.9998 14.1341 73.9998 13.7974C74.0003 13.3462 74.1584 12.9135 74.4396 12.5944C74.7209 12.2753 75.1021 12.0958 75.4998 12.0953ZM60.4998 27.4145C60.7965 27.4145 61.0865 27.5143 61.3332 27.7013C61.5798 27.8884 61.7721 28.1542 61.8856 28.4652C61.9992 28.7762 62.0289 29.1185 61.971 29.4487C61.9131 29.7788 61.7703 30.0821 61.5605 30.3202C61.3507 30.5582 61.0834 30.7203 60.7924 30.786C60.5015 30.8517 60.1999 30.818 59.9258 30.6891C59.6517 30.5603 59.4174 30.3422 59.2526 30.0622C59.0878 29.7823 58.9998 29.4532 58.9998 29.1166C59.0003 28.6653 59.1584 28.2327 59.4396 27.9136C59.7209 27.5945 60.1021 27.415 60.4998 27.4145ZM45.4998 22.3081C45.7965 22.3081 46.0865 22.4079 46.3332 22.5949C46.5798 22.782 46.7721 23.0478 46.8856 23.3588C46.9992 23.6699 47.0289 24.0121 46.971 24.3423C46.9131 24.6725 46.7703 24.9757 46.5605 25.2138C46.3507 25.4518 46.0834 25.614 45.7924 25.6796C45.5015 25.7453 45.1999 25.7116 44.9258 25.5828C44.6517 25.4539 44.4174 25.2358 44.2526 24.9559C44.0878 24.6759 43.9998 24.3469 43.9998 24.0102C44.0003 23.5589 44.1584 23.1263 44.4396 22.8072C44.7209 22.4881 45.1021 22.3086 45.4998 22.3081ZM30.4998 29.1166C30.7965 29.1166 31.0865 29.2164 31.3332 29.4034C31.5798 29.5905 31.7721 29.8563 31.8856 30.1673C31.9992 30.4784 32.0289 30.8206 31.971 31.1508C31.9131 31.481 31.7703 31.7843 31.5605 32.0223C31.3507 32.2603 31.0834 32.4225 30.7925 32.4881C30.5015 32.5538 30.1999 32.5201 29.9258 32.3913C29.6517 32.2624 29.4174 32.0443 29.2526 31.7644C29.0878 31.4845 28.9998 31.1554 28.9998 30.8187C29.0003 30.3674 29.1584 29.9348 29.4396 29.6157C29.7209 29.2966 30.1021 29.1171 30.4998 29.1166ZM15.4998 35.9251C15.7965 35.9251 16.0865 36.0249 16.3332 36.212C16.5798 36.399 16.7721 36.6648 16.8856 36.9759C16.9992 37.2869 17.0289 37.6291 16.971 37.9593C16.9131 38.2895 16.7703 38.5928 16.5605 38.8308C16.3507 39.0689 16.0834 39.231 15.7924 39.2966C15.5015 39.3623 15.1999 39.3286 14.9258 39.1998C14.6517 39.071 14.4174 38.8528 14.2526 38.5729C14.0878 38.293 13.9998 37.9639 13.9998 37.6272C14.0003 37.1759 14.1584 36.7433 14.4396 36.4242C14.7209 36.1051 15.1021 35.9256 15.4998 35.9251Z" fill="#032086"/>
</svg>
