<svg width="95" height="80" viewBox="0 0 95 80" fill="none" xmlns="http://www.w3.org/2000/svg">
<path d="M60.8337 28.1492H46.0183C44.84 28.1479 43.7102 27.6793 42.8769 26.846C42.0437 26.0128 41.575 24.883 41.5737 23.7046V11.8523C41.575 10.6739 42.0437 9.54418 42.8769 8.71093C43.7102 7.87768 44.84 7.409 46.0183 7.40771H60.8337C62.0121 7.409 63.1418 7.87768 63.9751 8.71093C64.8083 9.54418 65.277 10.6739 65.2783 11.8523V23.7046C65.277 24.883 64.8083 26.0128 63.9751 26.846C63.1418 27.6793 62.0121 28.1479 60.8337 28.1492ZM46.0183 10.3708C45.6255 10.3711 45.2488 10.5272 44.971 10.805C44.6932 11.0828 44.5371 11.4595 44.5368 11.8523V23.7046C44.5371 24.0975 44.6932 24.4741 44.971 24.7519C45.2488 25.0297 45.6255 25.1859 46.0183 25.1861H60.8337C61.2265 25.1859 61.6032 25.0297 61.881 24.7519C62.1588 24.4741 62.315 24.0975 62.3152 23.7046V11.8523C62.315 11.4595 62.1588 11.0828 61.881 10.805C61.6032 10.5272 61.2265 10.3711 60.8337 10.3708H46.0183Z" fill="#032086"/>
<path d="M43.0552 17.7784C41.2971 17.7784 39.5785 17.2571 38.1167 16.2803C36.6548 15.3036 35.5155 13.9153 34.8427 12.291C34.1699 10.6667 33.9938 8.87936 34.3368 7.15502C34.6798 5.43068 35.5264 3.84678 36.7696 2.6036C38.0128 1.36042 39.5967 0.5138 41.321 0.170808C43.0454 -0.172185 44.8327 0.00385157 46.457 0.676655C48.0813 1.34946 49.4696 2.48881 50.4464 3.95064C51.4231 5.41246 51.9445 7.1311 51.9445 8.88922C51.9445 9.28215 51.7884 9.65898 51.5105 9.93683C51.2327 10.2147 50.8558 10.3708 50.4629 10.3708C50.07 10.3708 49.6932 10.2147 49.4153 9.93683C49.1375 9.65898 48.9814 9.28215 48.9814 8.88922C48.9814 7.71714 48.6338 6.57138 47.9826 5.59683C47.3315 4.62228 46.4059 3.86271 45.3231 3.41418C44.2402 2.96564 43.0487 2.84828 41.8991 3.07695C40.7495 3.30561 39.6936 3.87002 38.8648 4.6988C38.036 5.52759 37.4716 6.58353 37.243 7.73309C37.0143 8.88265 37.1317 10.0742 37.5802 11.1571C38.0287 12.2399 38.7883 13.1655 39.7628 13.8166C40.7374 14.4678 41.8832 14.8154 43.0552 14.8154C43.4482 14.8154 43.825 14.9715 44.1028 15.2493C44.3807 15.5271 44.5368 15.904 44.5368 16.2969C44.5368 16.6898 44.3807 17.0667 44.1028 17.3445C43.825 17.6223 43.4482 17.7784 43.0552 17.7784Z" fill="#032086"/>
<path d="M34.1661 22.2231C33.9715 22.2232 33.7788 22.185 33.599 22.1106C33.4192 22.0361 33.2559 21.927 33.1183 21.7894C32.9807 21.6518 32.8715 21.4885 32.7971 21.3087C32.7227 21.1289 32.6845 20.9362 32.6846 20.7416C32.6861 19.1703 33.311 17.6639 34.422 16.5529C35.5331 15.4419 37.0395 14.817 38.6107 14.8154C39.0036 14.8154 39.3805 14.9715 39.6583 15.2494C39.9362 15.5272 40.0923 15.904 40.0923 16.297C40.0923 16.6899 39.9362 17.0667 39.6583 17.3446C39.3805 17.6224 39.0036 17.7785 38.6107 17.7785C37.8252 17.7795 37.0721 18.092 36.5166 18.6475C35.9612 19.203 35.6487 19.956 35.6476 20.7416C35.6478 20.9362 35.6095 21.1289 35.5351 21.3087C35.4607 21.4885 35.3516 21.6518 35.214 21.7894C35.0764 21.927 34.913 22.0361 34.7332 22.1106C34.5534 22.185 34.3607 22.2232 34.1661 22.2231Z" fill="#032086"/>
<path d="M43.0555 17.7785H38.6109C38.218 17.7785 37.8412 17.6224 37.5633 17.3446C37.2855 17.0667 37.1294 16.6899 37.1294 16.297C37.1294 15.904 37.2855 15.5272 37.5633 15.2494C37.8412 14.9715 38.218 14.8154 38.6109 14.8154H43.0555C43.4485 14.8154 43.8253 14.9715 44.1031 15.2494C44.381 15.5272 44.5371 15.904 44.5371 16.297C44.5371 16.6899 44.381 17.0667 44.1031 17.3446C43.8253 17.6224 43.4485 17.7785 43.0555 17.7785Z" fill="#032086"/>
<path d="M34.1663 28.1493C32.9879 28.148 31.8581 27.6793 31.0249 26.8461C30.1916 26.0128 29.723 24.8831 29.7217 23.7047C29.7217 23.3118 29.8778 22.9349 30.1556 22.6571C30.4335 22.3792 30.8103 22.2231 31.2032 22.2231C31.5961 22.2231 31.973 22.3792 32.2508 22.6571C32.5287 22.9349 32.6848 23.3118 32.6848 23.7047C32.685 24.0975 32.8412 24.4742 33.119 24.752C33.3968 25.0298 33.7734 25.186 34.1663 25.1862C34.5592 25.1862 34.9361 25.3423 35.2139 25.6202C35.4917 25.898 35.6478 26.2748 35.6478 26.6678C35.6478 27.0607 35.4917 27.4375 35.2139 27.7154C34.9361 27.9932 34.5592 28.1493 34.1663 28.1493Z" fill="#032086"/>
<path d="M31.2032 25.1861C31.0086 25.1862 30.8159 25.1479 30.6361 25.0735C30.4563 24.9991 30.293 24.89 30.1554 24.7524C30.0178 24.6148 29.9086 24.4514 29.8342 24.2716C29.7598 24.0918 29.7216 23.8991 29.7217 23.7045V22.223C29.7217 21.8301 29.8778 21.4532 30.1556 21.1754C30.4335 20.8975 30.8103 20.7415 31.2032 20.7415C31.5961 20.7415 31.973 20.8975 32.2508 21.1754C32.5287 21.4532 32.6848 21.8301 32.6848 22.223V23.7045C32.6849 23.8991 32.6466 24.0918 32.5722 24.2716C32.4978 24.4514 32.3887 24.6148 32.2511 24.7524C32.1135 24.89 31.9501 24.9991 31.7703 25.0735C31.5905 25.1479 31.3978 25.1862 31.2032 25.1861Z" fill="#032086"/>
<path d="M46.0184 28.1491H34.1661C33.7732 28.1491 33.3963 27.993 33.1185 27.7152C32.8407 27.4373 32.6846 27.0605 32.6846 26.6676C32.6846 26.2746 32.8407 25.8978 33.1185 25.62C33.3963 25.3421 33.7732 25.186 34.1661 25.186H46.0184C46.4113 25.186 46.7882 25.3421 47.066 25.62C47.3438 25.8978 47.4999 26.2746 47.4999 26.6676C47.4999 27.0605 47.3438 27.4373 47.066 27.7152C46.7882 27.993 46.4113 28.1491 46.0184 28.1491Z" fill="#032086"/>
<path d="M43.0555 23.7045H31.2032C30.8103 23.7045 30.4335 23.5484 30.1556 23.2706C29.8778 22.9928 29.7217 22.6159 29.7217 22.223C29.7217 21.8301 29.8778 21.4532 30.1556 21.1754C30.4335 20.8975 30.8103 20.7415 31.2032 20.7415H43.0555C43.4484 20.7415 43.8253 20.8975 44.1031 21.1754C44.381 21.4532 44.537 21.8301 44.537 22.223C44.537 22.6159 44.381 22.9928 44.1031 23.2706C43.8253 23.5484 43.4484 23.7045 43.0555 23.7045Z" fill="#032086"/>
<path d="M34.1661 23.7046C33.9715 23.7047 33.7788 23.6665 33.599 23.5921C33.4192 23.5177 33.2559 23.4085 33.1183 23.2709C32.9807 23.1333 32.8715 22.97 32.7971 22.7902C32.7227 22.6104 32.6845 22.4177 32.6846 22.2231V20.7415C32.6846 20.3486 32.8407 19.9718 33.1185 19.6939C33.3963 19.4161 33.7732 19.26 34.1661 19.26C34.559 19.26 34.9359 19.4161 35.2137 19.6939C35.4916 19.9718 35.6476 20.3486 35.6476 20.7415V22.2231C35.6478 22.4177 35.6095 22.6104 35.5351 22.7902C35.4607 22.97 35.3516 23.1333 35.214 23.2709C35.0764 23.4085 34.913 23.5177 34.7332 23.5921C34.5534 23.6665 34.3607 23.7047 34.1661 23.7046Z" fill="#032086"/>
<path d="M53.4551 19.2599C53.0622 19.2619 52.6846 19.1076 52.4054 18.8311C52.1262 18.5546 51.9682 18.1786 51.9663 17.7856C51.9644 17.3927 52.1187 17.0151 52.3951 16.7359C52.6716 16.4567 53.0477 16.2988 53.4406 16.2969H53.4551C53.848 16.2969 54.2249 16.453 54.5027 16.7308C54.7805 17.0087 54.9366 17.3855 54.9366 17.7784C54.9366 18.1713 54.7805 18.5482 54.5027 18.826C54.2249 19.1039 53.848 19.2599 53.4551 19.2599Z" fill="#032086"/>
<path d="M90.4646 80H75.6492C74.4708 79.9988 73.3411 79.5301 72.5078 78.6968C71.6746 77.8636 71.2059 76.7338 71.2046 75.5554V63.7032C71.2059 62.5248 71.6746 61.395 72.5078 60.5618C73.3411 59.7285 74.4708 59.2598 75.6492 59.2585H90.4646C91.6429 59.2598 92.7727 59.7285 93.606 60.5618C94.4392 61.395 94.9079 62.5248 94.9092 63.7032V75.5554C94.9079 76.7338 94.4392 77.8636 93.606 78.6968C92.7727 79.5301 91.6429 79.9988 90.4646 80ZM75.6492 62.2216C75.2564 62.2219 74.8797 62.3781 74.6019 62.6558C74.3241 62.9336 74.1679 63.3103 74.1677 63.7032V75.5554C74.1679 75.9483 74.3241 76.325 74.6019 76.6028C74.8797 76.8805 75.2564 77.0367 75.6492 77.037H90.4646C90.8574 77.0367 91.2341 76.8805 91.5119 76.6028C91.7897 76.325 91.9458 75.9483 91.9461 75.5554V63.7032C91.9458 63.3103 91.7897 62.9336 91.5119 62.6558C91.2341 62.3781 90.8574 62.2219 90.4646 62.2216H75.6492Z" fill="#032086"/>
<path d="M72.6861 69.6293C70.928 69.6293 69.2093 69.1079 67.7475 68.1312C66.2857 67.1544 65.1463 65.7661 64.4735 64.1418C63.8007 62.5175 63.6247 60.7302 63.9677 59.0058C64.3107 57.2815 65.1573 55.6976 66.4005 54.4544C67.6436 53.2112 69.2276 52.3646 70.9519 52.0216C72.6762 51.6786 74.4636 51.8547 76.0879 52.5275C77.7121 53.2003 79.1005 54.3396 80.0772 55.8015C81.054 57.2633 81.5753 58.9819 81.5753 60.7401C81.5753 61.133 81.4192 61.5098 81.1414 61.7877C80.8635 62.0655 80.4867 62.2216 80.0938 62.2216C79.7008 62.2216 79.324 62.0655 79.0462 61.7877C78.7683 61.5098 78.6122 61.133 78.6122 60.7401C78.6122 59.568 78.2647 58.4222 77.6135 57.4477C76.9623 56.4731 76.0368 55.7135 74.9539 55.265C73.8711 54.8165 72.6795 54.6991 71.53 54.9278C70.3804 55.1564 69.3245 55.7208 68.4957 56.5496C67.6669 57.3784 67.1025 58.4344 66.8738 59.5839C66.6452 60.7335 66.7625 61.925 67.2111 63.0079C67.6596 64.0908 68.4192 65.0163 69.3937 65.6675C70.3683 66.3186 71.514 66.6662 72.6861 66.6662C73.079 66.6662 73.4559 66.8223 73.7337 67.1001C74.0115 67.378 74.1676 67.7548 74.1676 68.1477C74.1676 68.5407 74.0115 68.9175 73.7337 69.1953C73.4559 69.4732 73.079 69.6293 72.6861 69.6293Z" fill="#032086"/>
<path d="M63.797 74.0739C63.6024 74.0741 63.4097 74.0358 63.2299 73.9614C63.0501 73.887 62.8867 73.7779 62.7491 73.6403C62.6115 73.5027 62.5024 73.3393 62.428 73.1595C62.3536 72.9797 62.3153 72.787 62.3154 72.5924C62.317 71.0212 62.9419 69.5147 64.0529 68.4037C65.1639 67.2927 66.6703 66.6678 68.2416 66.6663C68.6345 66.6663 69.0113 66.8223 69.2892 67.1002C69.567 67.378 69.7231 67.7549 69.7231 68.1478C69.7231 68.5407 69.567 68.9176 69.2892 69.1954C69.0113 69.4732 68.6345 69.6293 68.2416 69.6293C67.456 69.6304 66.703 69.9429 66.1475 70.4983C65.592 71.0538 65.2795 71.8069 65.2785 72.5924C65.2786 72.787 65.2404 72.9797 65.166 73.1595C65.0915 73.3393 64.9824 73.5027 64.8448 73.6403C64.7072 73.7779 64.5439 73.887 64.3641 73.9614C64.1843 74.0358 63.9916 74.0741 63.797 74.0739Z" fill="#032086"/>
<path d="M72.6859 69.6293H68.2413C67.8484 69.6293 67.4715 69.4732 67.1937 69.1954C66.9159 68.9176 66.7598 68.5407 66.7598 68.1478C66.7598 67.7549 66.9159 67.378 67.1937 67.1002C67.4715 66.8223 67.8484 66.6663 68.2413 66.6663H72.6859C73.0788 66.6663 73.4557 66.8223 73.7335 67.1002C74.0114 67.378 74.1674 67.7549 74.1674 68.1478C74.1674 68.5407 74.0114 68.9176 73.7335 69.1954C73.4557 69.4732 73.0788 69.6293 72.6859 69.6293Z" fill="#032086"/>
<path d="M63.7967 79.9999C62.6183 79.9986 61.4885 79.5299 60.6553 78.6967C59.822 77.8634 59.3533 76.7337 59.3521 75.5553C59.3521 75.1623 59.5081 74.7855 59.786 74.5077C60.0638 74.2298 60.4407 74.0737 60.8336 74.0737C61.2265 74.0737 61.6034 74.2298 61.8812 74.5077C62.159 74.7855 62.3151 75.1623 62.3151 75.5553C62.3154 75.9481 62.4716 76.3248 62.7493 76.6026C63.0271 76.8804 63.4038 77.0365 63.7967 77.0368C64.1896 77.0368 64.5664 77.1929 64.8443 77.4707C65.1221 77.7486 65.2782 78.1254 65.2782 78.5183C65.2782 78.9113 65.1221 79.2881 64.8443 79.5659C64.5664 79.8438 64.1896 79.9999 63.7967 79.9999Z" fill="#032086"/>
<path d="M60.8336 77.0369C60.639 77.037 60.4463 76.9988 60.2665 76.9243C60.0867 76.8499 59.9233 76.7408 59.7857 76.6032C59.6481 76.4656 59.539 76.3023 59.4646 76.1225C59.3902 75.9427 59.3519 75.7499 59.3521 75.5554V74.0738C59.3521 73.6809 59.5081 73.3041 59.786 73.0262C60.0638 72.7484 60.4407 72.5923 60.8336 72.5923C61.2265 72.5923 61.6034 72.7484 61.8812 73.0262C62.159 73.3041 62.3151 73.6809 62.3151 74.0738V75.5554C62.3152 75.7499 62.277 75.9427 62.2026 76.1225C62.1282 76.3023 62.019 76.4656 61.8814 76.6032C61.7438 76.7408 61.5805 76.8499 61.4007 76.9243C61.2209 76.9988 61.0282 77.037 60.8336 77.0369Z" fill="#032086"/>
<path d="M75.6493 79.9999H63.797C63.404 79.9999 63.0272 79.8438 62.7494 79.566C62.4715 79.2882 62.3154 78.9113 62.3154 78.5184C62.3154 78.1255 62.4715 77.7486 62.7494 77.4708C63.0272 77.193 63.404 77.0369 63.797 77.0369H75.6493C76.0422 77.0369 76.419 77.193 76.6969 77.4708C76.9747 77.7486 77.1308 78.1255 77.1308 78.5184C77.1308 78.9113 76.9747 79.2882 76.6969 79.566C76.419 79.8438 76.0422 79.9999 75.6493 79.9999Z" fill="#032086"/>
<path d="M72.6859 75.5554H60.8336C60.4407 75.5554 60.0638 75.3993 59.786 75.1214C59.5081 74.8436 59.3521 74.4667 59.3521 74.0738C59.3521 73.6809 59.5081 73.3041 59.786 73.0262C60.0638 72.7484 60.4407 72.5923 60.8336 72.5923H72.6859C73.0788 72.5923 73.4556 72.7484 73.7335 73.0262C74.0113 73.3041 74.1674 73.6809 74.1674 74.0738C74.1674 74.4667 74.0113 74.8436 73.7335 75.1214C73.4556 75.3993 73.0788 75.5554 72.6859 75.5554Z" fill="#032086"/>
<path d="M63.797 75.5554C63.6024 75.5556 63.4097 75.5173 63.2299 75.4429C63.0501 75.3685 62.8867 75.2594 62.7491 75.1218C62.6115 74.9842 62.5024 74.8208 62.428 74.641C62.3536 74.4612 62.3153 74.2685 62.3154 74.0739V72.5924C62.3154 72.1994 62.4715 71.8226 62.7494 71.5448C63.0272 71.2669 63.404 71.1108 63.797 71.1108C64.1899 71.1108 64.5667 71.2669 64.8446 71.5448C65.1224 71.8226 65.2785 72.1994 65.2785 72.5924V74.0739C65.2786 74.2685 65.2404 74.4612 65.166 74.641C65.0915 74.8208 64.9824 74.9842 64.8448 75.1218C64.7072 75.2594 64.5439 75.3685 64.3641 75.4429C64.1843 75.5173 63.9916 75.5556 63.797 75.5554Z" fill="#032086"/>
<path d="M83.086 71.1108C82.8914 71.1117 82.6986 71.0743 82.5184 71.0008C82.3383 70.9272 82.1745 70.8189 82.0362 70.682C81.898 70.5451 81.7881 70.3823 81.7127 70.2029C81.6374 70.0235 81.5981 69.831 81.5972 69.6365C81.5962 69.4419 81.6336 69.2491 81.7072 69.069C81.7808 68.8889 81.8891 68.725 82.026 68.5868C82.1629 68.4485 82.3257 68.3386 82.5051 68.2632C82.6845 68.1879 82.8769 68.1487 83.0715 68.1477H83.086C83.4789 68.1477 83.8557 68.3038 84.1336 68.5816C84.4114 68.8595 84.5675 69.2363 84.5675 69.6292C84.5675 70.0222 84.4114 70.399 84.1336 70.6768C83.8557 70.9547 83.4789 71.1108 83.086 71.1108Z" fill="#032086"/>
<path d="M31.2028 80H16.3875C15.2091 79.9988 14.0793 79.5301 13.2461 78.6968C12.4128 77.8636 11.9442 76.7338 11.9429 75.5554V63.7032C11.9442 62.5248 12.4128 61.395 13.2461 60.5618C14.0793 59.7285 15.2091 59.2598 16.3875 59.2585H31.2028C32.3812 59.2598 33.511 59.7285 34.3442 60.5618C35.1775 61.395 35.6462 62.5248 35.6474 63.7032V75.5554C35.6462 76.7338 35.1775 77.8636 34.3442 78.6968C33.511 79.5301 32.3812 79.9988 31.2028 80ZM16.3875 62.2216C15.9946 62.2219 15.618 62.3781 15.3402 62.6558C15.0624 62.9336 14.9062 63.3103 14.9059 63.7032V75.5554C14.9062 75.9483 15.0624 76.325 15.3402 76.6028C15.618 76.8805 15.9946 77.0367 16.3875 77.037H31.2028C31.5957 77.0367 31.9724 76.8805 32.2502 76.6028C32.5279 76.325 32.6841 75.9483 32.6844 75.5554V63.7032C32.6841 63.3103 32.5279 62.9336 32.2501 62.6558C31.9724 62.3781 31.5957 62.2219 31.2028 62.2216H16.3875Z" fill="#032086"/>
<path d="M13.4249 69.6293C11.6667 69.6293 9.94811 69.1079 8.48628 68.1312C7.02446 67.1544 5.8851 65.7661 5.2123 64.1418C4.5395 62.5175 4.36346 60.7302 4.70645 59.0058C5.04944 57.2815 5.89606 55.6976 7.13924 54.4544C8.38242 53.2112 9.96633 52.3646 11.6907 52.0216C13.415 51.6786 15.2023 51.8547 16.8266 52.5275C18.4509 53.2003 19.8392 54.3396 20.816 55.8015C21.7927 57.2633 22.3141 58.9819 22.3141 60.7401C22.3141 61.133 22.158 61.5098 21.8801 61.7877C21.6023 62.0655 21.2255 62.2216 20.8325 62.2216C20.4396 62.2216 20.0628 62.0655 19.7849 61.7877C19.5071 61.5098 19.351 61.133 19.351 60.7401C19.351 59.568 19.0034 58.4222 18.3523 57.4477C17.7011 56.4731 16.7756 55.7135 15.6927 55.265C14.6098 54.8165 13.4183 54.6991 12.2687 54.9278C11.1192 55.1564 10.0632 55.7208 9.23445 56.5496C8.40566 57.3784 7.84125 58.4344 7.61259 59.5839C7.38393 60.7335 7.50129 61.925 7.94982 63.0079C8.39836 64.0908 9.15793 65.0163 10.1325 65.6675C11.107 66.3186 12.2528 66.6662 13.4249 66.6662C13.8178 66.6662 14.1946 66.8223 14.4725 67.1001C14.7503 67.378 14.9064 67.7548 14.9064 68.1477C14.9064 68.5407 14.7503 68.9175 14.4725 69.1953C14.1946 69.4732 13.8178 69.6293 13.4249 69.6293Z" fill="#032086"/>
<path d="M4.53525 74.0739C4.34066 74.0741 4.14795 74.0358 3.96815 73.9614C3.78836 73.887 3.62499 73.7779 3.48739 73.6403C3.3498 73.5027 3.24067 73.3393 3.16626 73.1595C3.09184 72.9797 3.0536 72.787 3.05371 72.5924C3.05528 71.0212 3.68014 69.5147 4.79117 68.4037C5.9022 67.2927 7.40863 66.6678 8.97986 66.6663C9.37278 66.6663 9.74962 66.8223 10.0275 67.1002C10.3053 67.378 10.4614 67.7549 10.4614 68.1478C10.4614 68.5407 10.3053 68.9176 10.0275 69.1954C9.74962 69.4732 9.37278 69.6293 8.97986 69.6293C8.19431 69.6304 7.44124 69.9429 6.88577 70.4983C6.33031 71.0538 6.0178 71.8069 6.01678 72.5924C6.0169 72.787 5.97865 72.9797 5.90424 73.1595C5.82982 73.3393 5.7207 73.5027 5.5831 73.6403C5.44551 73.7779 5.28214 73.887 5.10234 73.9614C4.92254 74.0358 4.72984 74.0741 4.53525 74.0739Z" fill="#032086"/>
<path d="M13.4247 69.6293H8.98007C8.58714 69.6293 8.21031 69.4732 7.93247 69.1954C7.65463 68.9176 7.49854 68.5407 7.49854 68.1478C7.49854 67.7549 7.65463 67.378 7.93247 67.1002C8.21031 66.8223 8.58714 66.6663 8.98007 66.6663H13.4247C13.8176 66.6663 14.1944 66.8223 14.4723 67.1002C14.7501 67.378 14.9062 67.7549 14.9062 68.1478C14.9062 68.5407 14.7501 68.9176 14.4723 69.1954C14.1944 69.4732 13.8176 69.6293 13.4247 69.6293Z" fill="#032086"/>
<path d="M4.53543 79.9999C3.35704 79.9986 2.22728 79.5299 1.39404 78.6967C0.56079 77.8634 0.0921066 76.7337 0.0908203 75.5553C0.0908203 75.1623 0.24691 74.7855 0.524752 74.5077C0.802594 74.2298 1.17943 74.0737 1.57236 74.0737C1.96528 74.0737 2.34212 74.2298 2.61996 74.5077C2.8978 74.7855 3.05389 75.1623 3.05389 75.5553C3.05416 75.9481 3.21033 76.3248 3.48811 76.6026C3.7659 76.8804 4.14258 77.0365 4.53543 77.0368C4.92836 77.0368 5.30519 77.1929 5.58303 77.4707C5.86088 77.7486 6.01696 78.1254 6.01696 78.5183C6.01696 78.9113 5.86088 79.2881 5.58303 79.5659C5.30519 79.8438 4.92836 79.9999 4.53543 79.9999Z" fill="#032086"/>
<path d="M1.57236 77.0369C1.37777 77.037 1.18506 76.9988 1.00526 76.9243C0.825464 76.8499 0.662096 76.7408 0.524501 76.6032C0.386905 76.4656 0.27778 76.3023 0.203366 76.1225C0.128952 75.9427 0.0907076 75.7499 0.0908206 75.5554V74.0738C0.0908206 73.6809 0.246911 73.3041 0.524752 73.0262C0.802594 72.7484 1.17943 72.5923 1.57236 72.5923C1.96528 72.5923 2.34212 72.7484 2.61996 73.0262C2.8978 73.3041 3.05389 73.6809 3.05389 74.0738V75.5554C3.05401 75.7499 3.01576 75.9427 2.94135 76.1225C2.86693 76.3023 2.75781 76.4656 2.62021 76.6032C2.48262 76.7408 2.31925 76.8499 2.13945 76.9243C1.95965 76.9988 1.76695 77.037 1.57236 77.0369Z" fill="#032086"/>
<path d="M16.3875 79.9999H4.53525C4.14232 79.9999 3.76548 79.8438 3.48764 79.566C3.2098 79.2882 3.05371 78.9113 3.05371 78.5184C3.05371 78.1255 3.2098 77.7486 3.48764 77.4708C3.76548 77.193 4.14232 77.0369 4.53525 77.0369H16.3875C16.7805 77.0369 17.1573 77.193 17.4351 77.4708C17.713 77.7486 17.8691 78.1255 17.8691 78.5184C17.8691 78.9113 17.713 79.2882 17.4351 79.566C17.1573 79.8438 16.7805 79.9999 16.3875 79.9999Z" fill="#032086"/>
<path d="M13.4246 75.5554H1.57236C1.17943 75.5554 0.802594 75.3993 0.524752 75.1214C0.24691 74.8436 0.0908203 74.4667 0.0908203 74.0738C0.0908203 73.6809 0.24691 73.3041 0.524752 73.0262C0.802594 72.7484 1.17943 72.5923 1.57236 72.5923H13.4246C13.8176 72.5923 14.1944 72.7484 14.4722 73.0262C14.7501 73.3041 14.9062 73.6809 14.9062 74.0738C14.9062 74.4667 14.7501 74.8436 14.4722 75.1214C14.1944 75.3993 13.8176 75.5554 13.4246 75.5554Z" fill="#032086"/>
<path d="M4.53525 75.5554C4.34066 75.5556 4.14795 75.5173 3.96815 75.4429C3.78836 75.3685 3.62499 75.2594 3.48739 75.1218C3.3498 74.9842 3.24067 74.8208 3.16626 74.641C3.09184 74.4612 3.0536 74.2685 3.05371 74.0739V72.5924C3.05371 72.1994 3.2098 71.8226 3.48764 71.5448C3.76548 71.2669 4.14232 71.1108 4.53525 71.1108C4.92818 71.1108 5.30501 71.2669 5.58285 71.5448C5.86069 71.8226 6.01678 72.1994 6.01678 72.5924V74.0739C6.0169 74.2685 5.97865 74.4612 5.90424 74.641C5.82982 74.8208 5.7207 74.9842 5.5831 75.1218C5.44551 75.2594 5.28214 75.3685 5.10234 75.4429C4.92254 75.5173 4.72984 75.5556 4.53525 75.5554Z" fill="#032086"/>
<path d="M23.8242 71.1108C23.6297 71.1117 23.4368 71.0743 23.2567 71.0008C23.0766 70.9272 22.9128 70.8189 22.7745 70.682C22.6363 70.5451 22.5263 70.3823 22.451 70.2029C22.3757 70.0235 22.3364 69.831 22.3355 69.6365C22.3345 69.4419 22.3719 69.2491 22.4455 69.069C22.5191 68.8889 22.6274 68.725 22.7643 68.5868C22.9012 68.4485 23.064 68.3386 23.2434 68.2632C23.4227 68.1879 23.6152 68.1487 23.8098 68.1477H23.8242C24.2172 68.1477 24.594 68.3038 24.8718 68.5816C25.1497 68.8595 25.3058 69.2363 25.3058 69.6292C25.3058 70.0222 25.1497 70.399 24.8718 70.6768C24.594 70.9547 24.2172 71.1108 23.8242 71.1108Z" fill="#032086"/>
<path d="M47.5001 34.0753C47.3055 34.0754 47.1128 34.0371 46.933 33.9627C46.7532 33.8883 46.5898 33.7792 46.4522 33.6416C46.3146 33.504 46.2055 33.3406 46.1311 33.1608C46.0567 32.981 46.0184 32.7883 46.0186 32.5937V26.6676C46.0186 26.2746 46.1746 25.8978 46.4525 25.62C46.7303 25.3421 47.1072 25.186 47.5001 25.186C47.893 25.186 48.2699 25.3421 48.5477 25.62C48.8255 25.8978 48.9816 26.2746 48.9816 26.6676V32.5937C48.9817 32.7883 48.9435 32.981 48.8691 33.1608C48.7947 33.3406 48.6855 33.504 48.5479 33.6416C48.4103 33.7792 48.247 33.8883 48.0672 33.9627C47.8874 34.0371 47.6947 34.0754 47.5001 34.0753Z" fill="#032086"/>
<path d="M65.8093 59.4626C65.5497 59.4628 65.2947 59.3944 65.07 59.2643L59.5909 56.1002C59.2508 55.9036 59.0026 55.58 58.901 55.2005C58.7994 54.821 58.8526 54.4167 59.049 54.0765C59.2454 53.7362 59.5689 53.4879 59.9484 53.3861C60.3278 53.2843 60.7321 53.3373 61.0725 53.5335L66.5516 56.6977C66.8343 56.8608 67.0552 57.1126 67.1801 57.4141C67.3049 57.7157 67.3268 58.05 67.2421 58.3652C67.1575 58.6803 66.9712 58.9588 66.7121 59.1572C66.453 59.3557 66.1357 59.463 65.8093 59.4626Z" fill="#032086"/>
<path d="M24.4044 62.2245C24.078 62.225 23.7607 62.1176 23.5016 61.9192C23.2425 61.7208 23.0562 61.4423 22.9716 61.1271C22.8869 60.812 22.9088 60.4776 23.0336 60.1761C23.1585 59.8746 23.3795 59.6228 23.6621 59.4597L33.9287 53.5335C34.0972 53.4361 34.2833 53.3729 34.4763 53.3474C34.6693 53.322 34.8654 53.3348 35.0534 53.3851C35.2414 53.4355 35.4177 53.5224 35.5721 53.6409C35.7266 53.7594 35.8561 53.9071 35.9535 54.0757C36.0508 54.2443 36.1139 54.4304 36.1393 54.6234C36.1646 54.8164 36.1517 55.0125 36.1013 55.2005C36.0508 55.3885 35.9639 55.5647 35.8453 55.7191C35.7267 55.8735 35.5789 56.003 35.4102 56.1002L25.1437 62.0263C24.919 62.1564 24.664 62.2248 24.4044 62.2245Z" fill="#032086"/>
<path d="M47.5 63.7061C44.2768 63.7061 41.126 62.7503 38.446 60.9596C35.7659 59.1689 33.6771 56.6236 32.4437 53.6458C31.2102 50.6679 30.8875 47.3911 31.5163 44.2298C32.1451 41.0686 33.6972 38.1647 35.9764 35.8856C38.2555 33.6064 41.1594 32.0543 44.3207 31.4255C47.4819 30.7966 50.7587 31.1194 53.7366 32.3528C56.7144 33.5863 59.2597 35.6751 61.0504 38.3551C62.8411 41.0351 63.7969 44.186 63.7969 47.4092C63.792 51.7299 62.0735 55.8723 59.0183 58.9275C55.9631 61.9827 51.8207 63.7012 47.5 63.7061ZM47.5 34.0754C44.8628 34.0754 42.2849 34.8574 40.0922 36.3225C37.8994 37.7877 36.1904 39.8701 35.1812 42.3066C34.172 44.743 33.9079 47.424 34.4224 50.0105C34.9369 52.597 36.2068 54.9729 38.0716 56.8376C39.9364 58.7024 42.3122 59.9723 44.8987 60.4868C47.4852 61.0013 50.1662 60.7373 52.6027 59.7281C55.0391 58.7188 57.1216 57.0098 58.5867 54.8171C60.0518 52.6243 60.8339 50.0464 60.8339 47.4092C60.83 43.874 59.4239 40.4848 56.9242 37.985C54.4245 35.4853 51.0352 34.0792 47.5 34.0754Z" fill="#032086"/>
<path d="M54.9048 56.2985H40.0894C39.8949 56.2986 39.7022 56.2604 39.5224 56.1859C39.3426 56.1115 39.1792 56.0024 39.0416 55.8648C38.904 55.7272 38.7949 55.5638 38.7205 55.384C38.646 55.2042 38.6078 55.0115 38.6079 54.817V47.4093C38.6079 47.0163 38.764 46.6395 39.0418 46.3617C39.3197 46.0838 39.6965 45.9277 40.0894 45.9277C40.4824 45.9277 40.8592 46.0838 41.137 46.3617C41.4149 46.6395 41.571 47.0163 41.571 47.4093V53.3354H53.4233V47.4093C53.4233 47.0163 53.5794 46.6395 53.8572 46.3617C54.135 46.0838 54.5119 45.9277 54.9048 45.9277C55.2977 45.9277 55.6746 46.0838 55.9524 46.3617C56.2303 46.6395 56.3863 47.0163 56.3863 47.4093V54.817C56.3865 55.0115 56.3482 55.2042 56.2738 55.384C56.1994 55.5638 56.0903 55.7272 55.9527 55.8648C55.8151 56.0024 55.6517 56.1115 55.4719 56.1859C55.2921 56.2604 55.0994 56.2986 54.9048 56.2985Z" fill="#032086"/>
<path d="M54.9049 50.3723C54.7103 50.3724 54.5176 50.3341 54.3378 50.2597C54.158 50.1853 53.9946 50.0762 53.857 49.9386C53.7194 49.801 53.6103 49.6376 53.5359 49.4578C53.4615 49.278 53.4232 49.0853 53.4233 48.8907V44.4461C53.4233 44.0532 53.5794 43.6764 53.8573 43.3985C54.1351 43.1207 54.5119 42.9646 54.9049 42.9646C55.2978 42.9646 55.6746 43.1207 55.9525 43.3985C56.2303 43.6764 56.3864 44.0532 56.3864 44.4461V48.8907C56.3865 49.0853 56.3483 49.278 56.2739 49.4578C56.1994 49.6376 56.0903 49.801 55.9527 49.9386C55.8151 50.0762 55.6518 50.1853 55.472 50.2597C55.2922 50.3341 55.0995 50.3724 54.9049 50.3723Z" fill="#032086"/>
<path d="M40.0894 50.3723C39.8949 50.3724 39.7022 50.3341 39.5224 50.2597C39.3426 50.1853 39.1792 50.0762 39.0416 49.9386C38.904 49.801 38.7949 49.6376 38.7205 49.4578C38.646 49.278 38.6078 49.0853 38.6079 48.8907V44.4461C38.6079 44.0532 38.764 43.6764 39.0418 43.3985C39.3197 43.1207 39.6965 42.9646 40.0894 42.9646C40.4824 42.9646 40.8592 43.1207 41.137 43.3985C41.4149 43.6764 41.571 44.0532 41.571 44.4461V48.8907C41.5711 49.0853 41.5328 49.278 41.4584 49.4578C41.384 49.6376 41.2749 49.801 41.1373 49.9386C40.9997 50.0762 40.8363 50.1853 40.6565 50.2597C40.4767 50.3341 40.284 50.3724 40.0894 50.3723Z" fill="#032086"/>
<path d="M40.0894 45.9275C39.8949 45.9276 39.7022 45.8894 39.5224 45.815C39.3426 45.7406 39.1792 45.6314 39.0416 45.4938C38.904 45.3562 38.7949 45.1929 38.7205 45.0131C38.646 44.8333 38.6078 44.6406 38.6079 44.446C38.6089 43.6604 38.9214 42.9074 39.4769 42.3519C40.0324 41.7964 40.7854 41.4839 41.571 41.4829C41.9639 41.4829 42.3407 41.639 42.6186 41.9168C42.8964 42.1947 43.0525 42.5715 43.0525 42.9644C43.0525 43.3574 42.8964 43.7342 42.6186 44.0121C42.3407 44.2899 41.9639 44.446 41.571 44.446C41.5711 44.6406 41.5328 44.8333 41.4584 45.0131C41.384 45.1929 41.2749 45.3562 41.1373 45.4938C40.9997 45.6314 40.8363 45.7406 40.6565 45.815C40.4767 45.8894 40.284 45.9276 40.0894 45.9275Z" fill="#032086"/>
<path d="M54.905 45.9275C54.7104 45.9276 54.5177 45.8894 54.3379 45.815C54.1581 45.7406 53.9947 45.6314 53.8571 45.4938C53.7195 45.3562 53.6104 45.1929 53.536 45.0131C53.4615 44.8333 53.4233 44.6406 53.4234 44.446V44.443C53.2291 44.443 53.0366 44.4047 52.857 44.3304C52.6775 44.256 52.5143 44.147 52.3769 44.0095C52.2394 43.8721 52.1304 43.7089 52.056 43.5294C51.9816 43.3498 51.9434 43.1573 51.9434 42.963C51.9434 42.7686 51.9816 42.5761 52.056 42.3966C52.1304 42.217 52.2394 42.0538 52.3769 41.9164C52.5143 41.779 52.6775 41.67 52.857 41.5956C53.0366 41.5212 53.2291 41.4829 53.4234 41.4829C54.209 41.4839 54.962 41.7964 55.5175 42.3519C56.073 42.9074 56.3855 43.6604 56.3865 44.446C56.3866 44.6406 56.3484 44.8333 56.2739 45.0131C56.1995 45.1929 56.0904 45.3562 55.9528 45.4938C55.8152 45.6314 55.6518 45.7406 55.472 45.815C55.2922 45.8894 55.0995 45.9276 54.905 45.9275Z" fill="#032086"/>
<path d="M54.9048 48.8908H40.0894C39.6965 48.8908 39.3197 48.7347 39.0418 48.4569C38.764 48.179 38.6079 47.8022 38.6079 47.4093C38.6079 47.0163 38.764 46.6395 39.0418 46.3617C39.3197 46.0838 39.6965 45.9277 40.0894 45.9277H54.9048C55.2977 45.9277 55.6746 46.0838 55.9524 46.3617C56.2303 46.6395 56.3863 47.0163 56.3863 47.4093C56.3863 47.8022 56.2303 48.179 55.9524 48.4569C55.6746 48.7347 55.2977 48.8908 54.9048 48.8908Z" fill="#032086"/>
<path d="M53.4232 44.446H41.5709C41.178 44.446 40.8011 44.2899 40.5233 44.0121C40.2454 43.7342 40.0894 43.3574 40.0894 42.9644C40.0894 42.5715 40.2454 42.1947 40.5233 41.9168C40.8011 41.639 41.178 41.4829 41.5709 41.4829H53.4232C53.8161 41.4829 54.1929 41.639 54.4708 41.9168C54.7486 42.1947 54.9047 42.5715 54.9047 42.9644C54.9047 43.3574 54.7486 43.7342 54.4708 44.0121C54.1929 44.2899 53.8161 44.446 53.4232 44.446Z" fill="#032086"/>
<path d="M50.4599 44.446H44.5338C44.3392 44.4461 44.1465 44.4079 43.9667 44.3335C43.7869 44.2591 43.6235 44.1499 43.4859 44.0123C43.3483 43.8747 43.2392 43.7114 43.1648 43.5316C43.0904 43.3518 43.0521 43.1591 43.0522 42.9645V38.5199C43.0521 38.3253 43.0904 38.1326 43.1648 37.9528C43.2392 37.773 43.3483 37.6096 43.4859 37.472C43.6235 37.3344 43.7869 37.2253 43.9667 37.1509C44.1465 37.0765 44.3392 37.0382 44.5338 37.0383H50.4599C50.6545 37.0382 50.8472 37.0765 51.027 37.1509C51.2068 37.2253 51.3702 37.3344 51.5078 37.472C51.6454 37.6096 51.7545 37.773 51.8289 37.9528C51.9033 38.1326 51.9416 38.3253 51.9415 38.5199V42.9645C51.9416 43.1591 51.9033 43.3518 51.8289 43.5316C51.7545 43.7114 51.6454 43.8747 51.5078 44.0123C51.3702 44.1499 51.2068 44.259 51.027 44.3335C50.8472 44.4079 50.6545 44.4461 50.4599 44.446ZM46.0153 41.4829H48.9784V40.0014H46.0153V41.4829Z" fill="#032086"/>
<path d="M47.4972 50.3722C47.3026 50.3723 47.1099 50.3341 46.9301 50.2596C46.7503 50.1852 46.5869 50.0761 46.4493 49.9385C46.3117 49.8009 46.2026 49.6375 46.1282 49.4577C46.0538 49.2779 46.0155 49.0852 46.0156 48.8907V45.9276C46.0156 45.5347 46.1717 45.1578 46.4496 44.88C46.7274 44.6021 47.1042 44.446 47.4972 44.446C47.8901 44.446 48.2669 44.6021 48.5448 44.88C48.8226 45.1578 48.9787 45.5347 48.9787 45.9276V48.8907C48.9788 49.0852 48.9406 49.2779 48.8661 49.4577C48.7917 49.6375 48.6826 49.8009 48.545 49.9385C48.4074 50.0761 48.244 50.1852 48.0642 50.2596C47.8845 50.3341 47.6918 50.3723 47.4972 50.3722Z" fill="#032086"/>
</svg>
